<svg width="35" height="24" viewBox="0 0 35 24" fill="none" xmlns="http://www.w3.org/2000/svg">
<path d="M14.2625 13.2188C12.693 11.9664 10.8719 11.3047 8.99061 11.3047C4.7589 11.3047 1.17577 14.7363 0.0765526 19.8359C-0.114854 20.7449 0.0560448 21.6888 0.548232 22.427C1.02675 23.1445 1.74479 23.5547 2.51042 23.5547H32.375C26.7312 23.5547 23.8984 21.5242 19.6219 17.8399L14.2625 13.2188ZM27.0976 12.2234L25.614 3.66486C25.4567 2.7215 24.9167 1.88751 24.1308 1.35431C23.345 0.821105 22.3677 0.626965 21.438 0.825207L10.9867 3.04798C9.49921 3.36243 8.39452 4.59454 8.23046 6.09845L7.85311 9.66407C8.22909 9.61622 8.59796 9.5547 8.98788 9.5547C11.2776 9.5547 13.4723 10.3477 15.4082 11.8997L20.7676 16.5137C24.6504 19.8633 27.0621 21.8047 32.3723 21.8047C33.8215 21.8047 34.9973 20.6289 34.9973 19.1797C35 17.7906 33.3812 12.65 27.0976 12.2234Z" fill="black"/>
</svg>
